<mxfile host="app.diagrams.net" modified="2022-11-25T02:11:31.045Z" agent="5.0 (Windows NT 10.0; Win64; x64) AppleWebKit/537.36 (KHTML, like Gecko) Chrome/107.0.0.0 Safari/537.36 Edg/107.0.1418.56" etag="Cu62pLanvheHHdtLU3Cs" version="20.6.0" type="github">
  <diagram id="C5RBs43oDa-KdzZeNtuy" name="Page-1">
    <mxGraphModel dx="975" dy="436" grid="0" gridSize="10" guides="1" tooltips="1" connect="1" arrows="1" fold="1" page="1" pageScale="1" pageWidth="827" pageHeight="1169" background="#CCF0F0" math="0" shadow="0">
      <root>
        <mxCell id="WIyWlLk6GJQsqaUBKTNV-0" />
        <mxCell id="WIyWlLk6GJQsqaUBKTNV-1" parent="WIyWlLk6GJQsqaUBKTNV-0" />
        <mxCell id="zgvPgR7icqviBxLPAKNY-15" value="" style="edgeStyle=orthogonalEdgeStyle;rounded=0;orthogonalLoop=1;jettySize=auto;html=1;" edge="1" parent="WIyWlLk6GJQsqaUBKTNV-1" source="WIyWlLk6GJQsqaUBKTNV-7" target="zgvPgR7icqviBxLPAKNY-14">
          <mxGeometry relative="1" as="geometry" />
        </mxCell>
        <mxCell id="WIyWlLk6GJQsqaUBKTNV-7" value="用户确认升级" style="rounded=1;whiteSpace=wrap;html=1;fontSize=12;glass=0;strokeWidth=1;shadow=0;fillColor=#dae8fc;strokeColor=#3333FF;" parent="WIyWlLk6GJQsqaUBKTNV-1" vertex="1">
          <mxGeometry x="170" y="270" width="120" height="37" as="geometry" />
        </mxCell>
        <mxCell id="zgvPgR7icqviBxLPAKNY-8" value="" style="edgeStyle=orthogonalEdgeStyle;rounded=0;orthogonalLoop=1;jettySize=auto;html=1;" edge="1" parent="WIyWlLk6GJQsqaUBKTNV-1" source="zgvPgR7icqviBxLPAKNY-7">
          <mxGeometry relative="1" as="geometry">
            <mxPoint x="228" y="201" as="targetPoint" />
          </mxGeometry>
        </mxCell>
        <mxCell id="zgvPgR7icqviBxLPAKNY-7" value="资源包下载" style="rounded=1;whiteSpace=wrap;html=1;fontSize=12;glass=0;strokeWidth=1;shadow=0;fillColor=#dae8fc;strokeColor=#3333FF;" vertex="1" parent="WIyWlLk6GJQsqaUBKTNV-1">
          <mxGeometry x="168" y="130" width="120" height="40" as="geometry" />
        </mxCell>
        <mxCell id="zgvPgR7icqviBxLPAKNY-13" value="" style="edgeStyle=orthogonalEdgeStyle;rounded=0;orthogonalLoop=1;jettySize=auto;html=1;" edge="1" parent="WIyWlLk6GJQsqaUBKTNV-1" source="zgvPgR7icqviBxLPAKNY-10" target="WIyWlLk6GJQsqaUBKTNV-7">
          <mxGeometry relative="1" as="geometry" />
        </mxCell>
        <mxCell id="zgvPgR7icqviBxLPAKNY-10" value="资源包解压" style="rounded=1;whiteSpace=wrap;html=1;fontSize=12;glass=0;strokeWidth=1;shadow=0;fillColor=#dae8fc;strokeColor=#3333FF;" vertex="1" parent="WIyWlLk6GJQsqaUBKTNV-1">
          <mxGeometry x="170" y="200" width="120" height="40" as="geometry" />
        </mxCell>
        <mxCell id="zgvPgR7icqviBxLPAKNY-21" value="" style="edgeStyle=orthogonalEdgeStyle;rounded=0;orthogonalLoop=1;jettySize=auto;html=1;" edge="1" parent="WIyWlLk6GJQsqaUBKTNV-1" source="zgvPgR7icqviBxLPAKNY-14" target="zgvPgR7icqviBxLPAKNY-20">
          <mxGeometry relative="1" as="geometry" />
        </mxCell>
        <mxCell id="zgvPgR7icqviBxLPAKNY-29" style="edgeStyle=orthogonalEdgeStyle;rounded=0;orthogonalLoop=1;jettySize=auto;html=1;exitX=1;exitY=0.5;exitDx=0;exitDy=0;entryX=0;entryY=0.5;entryDx=0;entryDy=0;" edge="1" parent="WIyWlLk6GJQsqaUBKTNV-1" source="zgvPgR7icqviBxLPAKNY-14" target="zgvPgR7icqviBxLPAKNY-28">
          <mxGeometry relative="1" as="geometry" />
        </mxCell>
        <mxCell id="zgvPgR7icqviBxLPAKNY-14" value="版本与资源&lt;br&gt;是否匹配" style="rhombus;whiteSpace=wrap;html=1;strokeColor=#6c8ebf;fillColor=#dae8fc;" vertex="1" parent="WIyWlLk6GJQsqaUBKTNV-1">
          <mxGeometry x="186.5" y="337" width="87" height="79" as="geometry" />
        </mxCell>
        <mxCell id="zgvPgR7icqviBxLPAKNY-27" value="" style="edgeStyle=orthogonalEdgeStyle;rounded=0;orthogonalLoop=1;jettySize=auto;html=1;" edge="1" parent="WIyWlLk6GJQsqaUBKTNV-1" source="zgvPgR7icqviBxLPAKNY-20" target="zgvPgR7icqviBxLPAKNY-26">
          <mxGeometry relative="1" as="geometry" />
        </mxCell>
        <mxCell id="zgvPgR7icqviBxLPAKNY-20" value="软件升级" style="rounded=1;whiteSpace=wrap;html=1;fontSize=12;glass=0;strokeWidth=1;shadow=0;fillColor=#dae8fc;strokeColor=#3333FF;" vertex="1" parent="WIyWlLk6GJQsqaUBKTNV-1">
          <mxGeometry x="170" y="457" width="120" height="37" as="geometry" />
        </mxCell>
        <mxCell id="zgvPgR7icqviBxLPAKNY-23" value="匹配" style="text;html=1;strokeColor=none;fillColor=none;align=center;verticalAlign=middle;whiteSpace=wrap;rounded=0;" vertex="1" parent="WIyWlLk6GJQsqaUBKTNV-1">
          <mxGeometry x="230" y="425" width="47" height="17" as="geometry" />
        </mxCell>
        <mxCell id="zgvPgR7icqviBxLPAKNY-31" value="" style="edgeStyle=orthogonalEdgeStyle;rounded=0;orthogonalLoop=1;jettySize=auto;html=1;" edge="1" parent="WIyWlLk6GJQsqaUBKTNV-1" source="zgvPgR7icqviBxLPAKNY-26" target="zgvPgR7icqviBxLPAKNY-30">
          <mxGeometry relative="1" as="geometry" />
        </mxCell>
        <mxCell id="zgvPgR7icqviBxLPAKNY-26" value="APP切换资源路径" style="rounded=1;whiteSpace=wrap;html=1;fontSize=12;glass=0;strokeWidth=1;shadow=0;fillColor=#dae8fc;strokeColor=#3333FF;" vertex="1" parent="WIyWlLk6GJQsqaUBKTNV-1">
          <mxGeometry x="170" y="534" width="120" height="38" as="geometry" />
        </mxCell>
        <mxCell id="zgvPgR7icqviBxLPAKNY-36" style="edgeStyle=orthogonalEdgeStyle;rounded=0;orthogonalLoop=1;jettySize=auto;html=1;exitX=0.5;exitY=0;exitDx=0;exitDy=0;entryX=1;entryY=0.5;entryDx=0;entryDy=0;" edge="1" parent="WIyWlLk6GJQsqaUBKTNV-1" source="zgvPgR7icqviBxLPAKNY-28" target="zgvPgR7icqviBxLPAKNY-7">
          <mxGeometry relative="1" as="geometry" />
        </mxCell>
        <mxCell id="zgvPgR7icqviBxLPAKNY-37" style="edgeStyle=orthogonalEdgeStyle;rounded=0;orthogonalLoop=1;jettySize=auto;html=1;entryX=1;entryY=0.5;entryDx=0;entryDy=0;" edge="1" parent="WIyWlLk6GJQsqaUBKTNV-1" source="zgvPgR7icqviBxLPAKNY-28" target="zgvPgR7icqviBxLPAKNY-30">
          <mxGeometry relative="1" as="geometry">
            <Array as="points">
              <mxPoint x="381" y="623" />
            </Array>
          </mxGeometry>
        </mxCell>
        <mxCell id="zgvPgR7icqviBxLPAKNY-28" value="异常流程" style="rounded=1;whiteSpace=wrap;html=1;fontSize=12;glass=0;strokeWidth=1;shadow=0;fillColor=#dae8fc;strokeColor=#3333FF;" vertex="1" parent="WIyWlLk6GJQsqaUBKTNV-1">
          <mxGeometry x="324" y="358" width="120" height="37" as="geometry" />
        </mxCell>
        <mxCell id="zgvPgR7icqviBxLPAKNY-30" value="结束" style="rounded=1;whiteSpace=wrap;html=1;fontSize=12;glass=0;strokeWidth=1;shadow=0;fillColor=#dae8fc;strokeColor=#3333FF;" vertex="1" parent="WIyWlLk6GJQsqaUBKTNV-1">
          <mxGeometry x="170" y="604" width="120" height="37" as="geometry" />
        </mxCell>
      </root>
    </mxGraphModel>
  </diagram>
</mxfile>
